<?xml version="1.0" encoding="UTF-8"?>
<svg width="610.05mm" height="137.58mm" version="1.1" viewBox="0 0 610.05 137.58" xmlns="http://www.w3.org/2000/svg"><defs><clipPath id="qa"><path d="m0 1158h1260v-1158h-1260z"/></clipPath><style>.cls-1{fill:#01a650;}.cls-2{fill:#ed1b24;}.cls-3{fill:#01a750;}</style></defs><g transform="translate(205.62 4.5587)"><g transform="matrix(.24753 0 0 -.24817 -249.8 253.3)" stroke-width="1.4234"><g stroke-width="1.4234"><g clip-path="url(#qa)" stroke-width="1.4234"><g transform="translate(712.24 781.78)"><path d="m0 0c63.573-13.485 66.463-75.133 66.463-75.133 215.76 81.876 135.82 238.88 135.82 238.88-72.243 130.04-187.83 39.493-187.83 39.493l-124.74 29.379c-42.383 12.522-63.573-28.897-63.573-28.897" fill="#ed1b24"/></g><g transform="translate(421.34 765.4)"><path d="m0 0s-135.82 77.059-60.685 207.1c0 0 86.692 106.92 193.61 0 0 0 113.66 104.99 187.83 4.816 0 0 78.985-86.691-27.935-196.5" fill="#fff" stroke="#195ea5" stroke-miterlimit="10" stroke-width="14.234"/></g><g transform="translate(316.29 936.68)"><path d="m0 0c0 3.572 2.889 6.464 6.46 6.464 3.567 0 6.46-2.892 6.46-6.464s-2.893-6.464-6.46-6.464c-3.571 0-6.46 2.892-6.46 6.464" fill="#195ea5"/></g><g transform="translate(291.89 912.99)"><path d="m0 0c0 3.572 2.893 6.46 6.46 6.46 3.571 0 6.459-2.888 6.459-6.46 0-3.563-2.888-6.455-6.459-6.455-3.567 0-6.46 2.892-6.46 6.455" fill="#195ea5"/></g><g transform="translate(313.42 910.84)"><path d="m0 0c0 3.567 2.893 6.455 6.46 6.455 3.571 0 6.464-2.888 6.464-6.455s-2.893-6.46-6.464-6.46c-3.567 0-6.46 2.893-6.46 6.46" fill="#195ea5"/></g><g transform="translate(329.21 897.93)"><path d="m0 0c0 3.567 2.888 6.455 6.46 6.455 3.566 0 6.455-2.888 6.455-6.455 0-3.572-2.889-6.46-6.455-6.46-3.572 0-6.46 2.888-6.46 6.46" fill="#195ea5"/></g><g transform="translate(983.75 915.87)"><path d="m0 0c0 3.567 2.892 6.456 6.464 6.456 3.567 0 6.46-2.889 6.46-6.456 0-3.572-2.893-6.459-6.46-6.459-3.572 0-6.464 2.887-6.464 6.459" fill="#195ea5"/></g><g transform="translate(707.43 689.08)"><path d="m0 0c0 3.571 2.892 6.455 6.464 6.455 3.567 0 6.459-2.884 6.459-6.455 0-3.572-2.892-6.464-6.459-6.464-3.572 0-6.464 2.892-6.464 6.464" fill="#195ea5"/></g><g transform="translate(1073.3 616.37)"><path d="m0 0c9e-3 -3.497-0.197-6.429-1.397-9.356-0.957-2.319-1.789-6.683-3.041-8.598-0.742-1.157-1.969-1.924-2.784-2.678-0.731-0.688-1.569-2.029-2.445-2.889-1.652-1.638-2.591-4.101-4.286-5.749-3.571-3.454-9.365-5.763-13.472-8.612-5.267-3.645-7.02-7.844-6.197-14.395 1.403 0.236 4.365-2.03 6.197-2.428 2.775-0.588 6.446-1.184 9.524-1.267 6.354-0.193 12.633 0.127 18.764 0.705 6.062 0.579 11.189 1.605 16.356 2.871 4.755 1.17 9.659 3.283 11.486 7.897 3.007 7.586 2.796 21.991-1.612 29.266-1.561 2.577-4.006 4.733-5.579 7.183-1.486 2.301-3.046 4.001-5.693 5.368-4.404 2.301-10.141 2.691-15.106 2.682" fill="#195ea5"/></g><g transform="translate(783.44 630.5)"><path d="m0 0c-6.517 0-13.227 2.248-18.906 8.567-2.652 2.941-2.41 7.481 0.539 10.137 2.941 2.651 7.472 2.405 10.137-0.535 8.348-9.295 22.403 1.469 22.547 1.582 7.958 6.368 20.852 10.956 21.4 11.149 0.512 0.18 1.052 0.307 1.591 0.36 11.613 1.288 24.997 7.248 25.129 7.318 31.846 13.029 78.045 25.672 80 26.207 3.826 1.043 7.765-1.21 8.809-5.031 1.043-3.821-1.21-7.779-5.031-8.817-0.474-0.123-47.318-12.955-78.121-25.554-0.391-0.189-14.691-6.566-28.315-8.283-3.602-1.336-11.842-4.838-16.579-8.616-5.04-3.94-13.927-8.484-23.2-8.484" fill="#195ea5"/></g><g transform="translate(745.34 531.27)"><path d="m0 0c-4.698 0-9.046 0.784-12.968 1.494-3.685 0.661-7.178 1.288-10.584 1.288-5.271 0-10.509-0.377-16.592-0.832-8.479-0.614-18.103-1.319-31.491-1.319-4.584 0-8.629 1.686-11.71 4.894-5.583 5.829-6.232 14.857-6.245 18.53l-4.571 15.693c-1.117 2.31-4.729 8.204-11.705 5.789-0.294-0.118-0.583-0.192-0.881-0.254-0.224-0.044-22.793-4.899-36.686-12.845-15.881-9.081-37.096-13.538-37.986-13.717-2.292-0.482-4.676 0.197-6.381 1.805-1.705 1.609-2.519 3.945-2.174 6.263 0.969 6.649 3.506 25.475 3.506 32.689 0 2.804 1.635 5.35 4.19 6.521 0.75 0.346 18.599 8.44 37.588 9.961 28.153 2.253 49.81 6.451 57.94 11.241 12.644 7.437 33.814 19.887 50.056 23.752 3.659 0.877 4.54 2.463 4.829 2.981 1.131 2.02 0.886 5 0.491 6.989-0.328 0.207-0.666 0.443-0.969 0.632-4.395 2.866-12.577 8.208-14.698 17.402-2.191 9.483-1.735 17.043-1.087 27.491l0.192 3.252c0.171 2.853-0.293 5.587-0.766 8.493-1.271 7.612-3.006 18.024 10.338 27.166 3.265 2.235 7.739 1.398 9.974-1.876 2.236-3.269 1.394-7.739-1.862-9.974-5.803-3.957-5.447-6.056-4.299-12.967 0.57-3.392 1.205-7.231 0.95-11.675l-0.21-3.287c-0.609-9.939-0.968-15.939 0.746-23.384 0.833-3.563 5.486-6.622 8.572-8.625 2.847-1.849 5.302-3.453 6.319-6.512 0.881-2.647 3.409-11.916-1.144-20.089-1.933-3.485-5.943-8.042-14.045-9.984-14.147-3.365-34.937-15.592-46.116-22.166-13.766-8.107-46.055-11.727-64.072-13.165-11.555-0.924-22.937-4.802-28.753-7.051-0.368-5.723-1.249-13.204-2.011-19.243 6.919 2.025 16.202 5.22 23.766 9.54 14.887 8.511 36.917 13.569 40.393 14.331 16.096 5.347 26.215-6.876 29.336-14.155 0.104-0.259 0.205-0.535 0.293-0.815l5.022-17.219c0.211-0.762 0.312-1.538 0.272-2.314-0.087-2.795 0.648-7.594 2.265-9.273 0.255-0.271 0.522-0.469 1.333-0.469 12.866 0 22.21 0.68 30.44 1.288 6.363 0.456 11.854 0.86 17.643 0.86 4.698 0 8.98-0.772 13.121-1.526 8.055-1.428 14.401-2.589 21.944 1.942 2.607 1.56 3.79 2.709 4.302 3.322-0.512 0.552-1.651 1.552-4.087 2.91-7.758 4.304-11.426 9.602-11.816 10.18-0.789 1.175-1.21 2.573-1.21 3.984 0 10.298 12.802 22.626 16.729 26.15 0.376 0.341 0.793 0.644 1.244 0.902 8.712 4.975 19.918 12.938 21.991 14.41 18.765 17.184 37.5 22.272 39.989 22.894 9.422 2.787 18.551 7.498 21.246 8.93 10.312 9.897 23.709 14.428 24.279 14.625 0.197 0.066 0.389 0.114 0.587 0.166 21.741 5.247 51.371 2.442 52.629 2.319 3.935-0.377 6.818-3.892 6.437-7.84-0.381-3.936-3.852-6.815-7.84-6.442-0.28 0.03-28.161 2.655-47.518-1.903-1.688-0.622-11.886-4.526-19.2-11.814-0.46-0.465-0.982-0.872-1.555-1.188-0.491-0.272-12.337-6.893-25.173-10.684-0.132-0.039-0.276-0.071-0.416-0.106-0.141-0.026-17.18-4.22-34.065-19.8-0.211-0.201-0.429-0.38-0.662-0.547-0.53-0.377-12.779-9.212-22.911-15.08-4.659-4.317-9.097-9.768-10.759-13.042 1.131-1.035 2.775-2.349 4.965-3.572 2.866-1.595 11.61-6.442 11.75-15.193 0.096-5.891-3.782-11.233-11.548-15.896-6.736-4.04-13.086-5.236-18.901-5.236" fill="#195ea5"/></g><g transform="translate(926.33 769.45)"><path d="m0 0c-1.933 0-3.86 0.789-5.271 2.318-2.687 2.91-2.511 7.454 0.407 10.137 3.028 2.795 29.989 27.42 43.614 31.706 8.55 2.7 17.674-1.314 21.478-3.361 1.722 0.179 5.635 1.459 8.388 9.032 0.057 0.162 0.131 0.337 0.201 0.5 0.057 0.149 6.154 13.62 8.349 20.141 1.262 3.756 5.338 5.785 9.085 4.523 3.755-1.262 5.784-5.325 4.522-9.098-2.27-6.766-7.892-19.282-8.765-21.242-6.227-16.78-19.164-19.098-25.198-17.976-0.885 0.166-1.736 0.5-2.494 0.986-2.217 1.354-7.902 3.883-11.258 2.813-7.977-2.511-27.662-18.861-38.193-28.568-1.386-1.28-3.121-1.911-4.865-1.911" fill="#195ea5"/></g><g transform="translate(967.54 861.57)"><path d="m0 0c-2.06 0-7.165 0.447-10.794 4.619-1.643 1.906-3.37 5.062-3.159 9.843-0.794 0.333-2.271 0.749-4.821 0.85-1.174 0.044-2.323 0.381-3.339 0.986-1.065 0.618-6.399 4.054-7.45 10.571-0.496 3.054-0.159 7.748 4.251 12.779 0.087 0.101 0.179 0.201 0.262 0.298 0.185 0.184 18.84 19.62 20.961 42.062 0.368 3.953 3.941 6.806 7.818 6.469 3.941-0.373 6.841-3.87 6.469-7.81-2.511-26.61-22.574-48.25-24.804-50.586-0.228-0.259-0.395-0.496-0.513-0.675 14.423-1.784 15.658-11.394 15.76-12.556 0.051-0.657 0.016-1.336-0.12-1.994-0.035-0.175-0.06-0.337-0.074-0.473l26.991 1.863c3.931 0.245 7.385-2.718 7.652-6.666 0.272-3.957-2.704-7.38-6.661-7.661l-27.754-1.901c-0.154-9e-3 -0.381-0.018-0.675-0.018" fill="#195ea5"/></g><g transform="translate(1017 767.79)"><path d="m0 0c-2.244 0-4.453 1.052-5.851 3.015-2.3 3.235-1.547 7.713 1.687 10.009 16.137 11.474 6.425 29.634 6 30.406-0.065 0.14-0.141 0.276-0.211 0.416l-24.396 52.151c-0.071 0.14-0.124 0.276-0.184 0.42-5.939 15.12 3.479 25.528 9.286 28.911 0.206 0.127 0.416 0.228 0.627 0.329l22.968 10.522c3.597 1.656 7.862 0.07 9.518-3.524 1.648-3.611 0.066-7.862-3.541-9.518l-22.539-10.334c-1.524-1.034-5.477-4.457-3.032-10.938l24.204-51.739c5.653-10.492 10.623-33.858-10.387-48.803-1.257-0.889-2.708-1.323-4.149-1.323" fill="#195ea5"/></g><g transform="translate(913.19 536.69)"><path d="m0 0c-2.919 0-5.648 1.774-6.727 4.636-12.71 33.622-52.83 29.415-53.229 29.376-2.393-0.282-4.746 0.657-6.288 2.48-1.552 1.827-2.086 4.308-1.443 6.6 6.408 22.661 31.318 31.64 41.954 35.471 1.358 0.504 2.48 0.903 3.278 1.236 5.053 2.165 12.783 7.792 18.651 15.461 3.528 4.61 6.372 15.413 8.659 24.103 1.079 4.098 2.109 7.963 3.156 11.131 3.042 9.12 7.902 32.22 8.362 34.429 1.88 11.797 9.189 16.526 14.663 17.88-7.117 7.104-8.939 15.505-8.541 20.624 9e-3 0.109 0.018 0.206 0.035 0.311 2.388 19.602 17.639 27.631 25.369 29.13 3.871 0.758 7.662-1.771 8.415-5.667 0.749-3.878-1.753-7.617-5.618-8.401-1.28-0.294-12.131-3.054-13.897-16.578-0.013-1.473 0.469-12.205 18.813-16.281 3.375-0.745 5.742-3.8 5.611-7.266-0.123-3.458-2.701-6.333-6.131-6.828l-19.62-2.875c-0.509-0.079-0.474-0.131-0.895-0.088-0.911-0.153-3.238-1.06-4.05-6.35-0.021-0.122-0.048-0.232-0.065-0.364-0.219-1.051-5.386-25.886-8.835-36.216-0.907-2.725-1.871-6.376-2.888-10.241-2.748-10.448-5.863-22.28-11.144-29.165-6.548-8.568-16.123-16.395-24.393-19.944-0.981-0.413-2.366-0.93-4.066-1.53-7.201-2.598-20.449-7.371-28.07-16.649 17.662-1.354 41.216-9.273 53.049-32.816 7.41 1.587 20.685 3.494 36.378 1.693 7.499 1.327 61.49 12.476 73.134 55.853 0.127 0.587 1.622 7.949-3.585 10.206l-24.918 11.023c-1.017 0.451-1.897 1.122-2.607 1.971-0.487 0.575-4.646 5.807-3.871 13.143 0.391 3.712 2.236 9.199 8.788 14.326 1.039 0.828 10.924 8.63 19.322 10.864 1.524 0.518 2.081 1.924 1.626 4.462l-14.147 37.242c-1.407 3.712 0.455 7.853 4.159 9.255 3.704 1.42 7.849-0.442 9.264-4.154l14.348-37.803c0.123-0.329 0.232-0.675 0.307-1.017 2.818-13.016-5.566-20.211-11.889-21.868-4.641-1.236-11.912-6.491-14.09-8.235-1.49-1.17-3.234-2.852-3.414-4.588-0.057-0.512 0.035-1.012 0.163-1.424l22.73-10.044c13.043-5.671 13.376-20.089 11.728-26.905-14.983-55.788-82.963-66.244-85.855-66.665-0.636-0.091-1.28-0.096-1.915-0.017-20.953 2.616-37.422-2.529-37.588-2.581-0.724-0.237-1.459-0.346-2.183-0.346" fill="#195ea5"/></g><g transform="translate(830.4 525.68)"><path d="m0 0c-2.2 0-4.286 1.017-5.649 2.756-1.359 1.731-1.845 4.002-1.324 6.136 8.599 34.892 45.766 44.564 47.334 44.972 3.827 0.959 7.74-1.381 8.704-5.228 0.964-3.839-1.367-7.736-5.206-8.699-0.438-0.124-23.319-6.254-33.416-25.344 9.598 0.408 20.382 1.363 24.691 3.081 11.148 4.453 24.506 5.316 44.679 2.848 3.935-0.477 6.735-4.057 6.257-7.993-0.477-3.923-4.058-6.74-7.998-6.254-17.608 2.139-28.858 1.578-37.605-1.932-10.549-4.207-37.439-4.343-40.467-4.343" fill="#195ea5"/></g><g transform="translate(963.9 779.27)"><path d="m0 0s-6.219-21.54 1.919-32.544l10.518-16.263s1.437-2.884 13.401-6.705l28.705-11.96 5.745 39.709s2.871 25.839-15.794 31.111l-30.146 12.915s-11.478 5.263-14.348-16.263" fill="#195ea5"/></g><g transform="translate(646.67 527.77)"><path d="m0 0c-0.504-6.218 1.104-14.711 12.082-18.8 2.547-0.96 5.053-1.433 7.438-1.433 8.624 0 15.18 6.394 18.804 11.017-2.669 0.622-7.17 1.262-14.527 1.394-0.754 0.017-1.495 0.144-2.209 0.389zm19.52-34.586c-4.107 0-8.296 0.789-12.447 2.332-24.62 9.163-23.235 32.895-19.063 44.149 1.349 3.659 5.382 5.551 9.067 4.294l28.122-9.681c15.711-0.403 24.402-2.985 28.105-8.335 1.769-2.581 2.269-5.733 1.305-8.414-0.105-0.303-0.241-0.605-0.381-0.881-0.504-0.955-12.407-23.464-34.708-23.464" fill="#195ea5"/></g><g transform="translate(453.35 504.69)"><path d="m0 0c-6.797 0-12.253 1.696-16.289 5.079-5.622 4.702-6.127 10.676-6.17 11.824-0.824 10.675 2.694 21.842 4.435 26.597h-2.437c-5.676-0.868-9.935-0.185-12.989 2.051-1.894 1.389-3.208 3.34-3.668 5.429-5.4 21.234-4.984 42.958-4.966 43.869 0 5.263 2.415 8.576 4.427 10.386 4.815 4.343 11.337 3.9 12.59 3.764 0.776-0.087 1.525-0.284 2.235-0.604l16.456-7.534c7.021-2.406 10.688 1.074 10.715 1.118 0.254 0.262 0.53 0.521 0.828 0.745l11.005 8.62c3.12 2.436 7.634 1.893 10.075-1.223 2.445-3.133 1.898-7.634-1.231-10.088l-10.641-8.336c-3.997-3.874-13.441-8.712-25.878-4.246-0.185 0.07-0.368 0.141-0.548 0.237l-15.312 6.994c-0.132-0.013-0.259-0.044-0.373-0.066-0.017-1.266-0.228-19.234 3.799-37.079 0.469 0.035 1.043 0.101 1.727 0.21 0.391 0.066 0.785 0.109 1.184 0.109h10.048c0.522 0 1.04-0.07 1.543-0.174 2.31-0.509 5.303-2.271 6.801-5.641 1.561-3.523 1.087-7.603-1.393-12.144-0.763-1.906-4.833-12.612-4.111-22.157 0.39-2.288 4.278-4.062 12.126-3.125 4.628 1.758 26.641 9.76 43.68 10.22 9.772 0.268 18.34 3.34 22.351 8.024 1.941 2.266 2.69 4.826 2.313 7.805l-0.981 8.743c-0.027 0.25-0.036 0.518-0.036 0.784 0 2.591 1.202 6.123 4.588 8.301 5.93 3.818 13.574 0.333 16.079-0.81 0.127-0.062 0.247-0.11 0.373-0.18 2.34-1.201 6.061-2.056 7.375-1.407 2.043 2.094 7.276 13.125 6.083 22.592-0.617 4.881-2.748 7.073-4.587 8.269-3.169 0.679-12.14 2.664-19.016 4.672-9.146 2.699-20.681 7.817-26.842 11.929-3.296 2.2-4.19 6.647-1.99 9.957 2.2 3.295 6.652 4.18 9.957 1.98 4.952-3.308 15.233-7.836 22.925-10.084 7.765-2.296 18.944-4.623 19.054-4.654 0.684-0.136 1.336-0.377 1.946-0.705 7.936-4.286 12.564-12.237 13.038-22.381 0.613-13.503-6.311-29.341-12.473-33.439-8.142-5.429-18.554-1.173-21.478 0.224l0.241-2.086c0.89-6.902-1.061-13.467-5.666-18.848-6.763-7.907-18.744-12.662-32.864-13.039-16.21-0.437-39.442-9.465-39.678-9.548-0.526-0.219-1.074-0.356-1.626-0.434-2.38-0.329-4.633-0.5-6.754-0.5" fill="#195ea5"/></g><g transform="translate(528.49 628.56)"><path d="m0 0s20.089 15.79 7.651 37.803l-11.482 20.097s-7.647 9.567-20.098 14.349c0 0-28.7 11.486-50.717-8.125 0 0-21.048-15.322-23.919-36.375 0 0-7.652-28.231 12.919-39.235 20.58-11 33.008-9.08 49.29-7.17 16.262 1.915 30.61 12.433 36.356 18.656" fill="#195ea5"/></g><g transform="translate(383.41 743)"><path d="m0 0c-9.772 0-17.774 5.964-21.719 10.575-2.735 2.37-4.242 5.469-4.242 8.825 0 5.391 3.892 9.502 5.925 11.277-6.762 0.587-11.71 1.56-13.116 1.866-11.294 1.482-14.791 11.899-15.063 17.254-0.014 0.237-0.014 0.452 0 0.683l1.105 24.17-28.749-26.86c-0.145-0.158-0.312-0.285-0.474-0.421-6.928-5.416-12.174-4.781-15.352-3.308-7.011 3.269-7.664 12.218-7.73 13.971-0.044 1.183 0.206 2.344 0.719 3.4l30.155 61.924c-11.872-0.89-20.917-0.092-31.058 1.529-7.191 1.153-13.279 4.957-17.59 11.005-6.746 9.43-8.13 22.985-6.522 32.241 1.1 6.368-1.091 9.221-1.104 9.256-1.867 1.682-2.705 4.238-2.217 6.714 0.49 2.471 2.252 4.491 4.632 5.35 5.421 1.942 16.627 9.414 24.454 16.325 9.545 8.423 23.143 12.604 28.959 14.4 6.809 2.091 23.927 2.626 27.28 2.704 3.944 0.057 7.257-3.041 7.353-6.998 0.106-3.971-3.032-7.262-6.99-7.354-7.542-0.184-19.791-0.951-23.427-2.082-4.926-1.516-16.448-5.057-23.674-11.442-5.868-5.167-14.379-11.429-21.729-15.567 1.061-3.461 1.6-8.05 0.601-13.76-1.096-6.302-0.053-15.685 4.062-21.461 2.095-2.919 4.773-4.614 8.187-5.162 10.54-1.688 20.816-2.845 39.897 8e-3 2.638 0.408 5.277-0.687 6.859-2.844 1.573-2.147 1.832-5 0.662-7.384l-33.193-68.177 34.28 32.061c2.107 1.959 5.183 2.49 7.822 1.311 3.948-1.758 8.563-6.03 8.563-12.297v-0.325l-1.416-31.123c0.123-1.087 0.645-3.296 2.687-3.524 0.267-0.026 0.521-0.074 0.784-0.136 0.167-0.035 17.99-3.926 34.446-0.89 3.366 0.601 6.714-1.231 7.972-4.417 1.262-3.203 0.092-6.837-2.796-8.69l-19.791-12.718c-0.044-0.044-0.097-0.075-0.144-0.127 1.607-1.788 7.949-8.007 15.706-4.133 1.393 0.982 7.656 5.526 11.132 10.733 2.19 3.295 6.652 4.194 9.947 1.994 3.296-2.2 4.189-6.657 1.99-9.948-5.518-8.287-14.983-14.646-15.387-14.922-0.193-0.123-0.394-0.241-0.609-0.355-4.207-2.244-8.278-3.151-12.087-3.151" fill="#195ea5"/></g><g transform="translate(264.86 696.61)"><path d="m0 0c-8.19 0-17.687 1.113-28.608 3.962-3.834 0.999-6.135 4.917-5.136 8.747 0.999 3.839 4.926 6.148 8.747 5.136 40.48-10.544 56.244 6.175 56.397 6.35 0.259 0.311 0.557 0.605 0.872 0.864 16.268 13.388 2.152 49.924-4.659 62.879-1.848 3.51-0.504 7.853 3.007 9.698 3.501 1.844 7.836 0.504 9.69-2.998 1.222-2.318 29.427-56.642 1.45-80.356-2.669-2.752-15.439-14.273-41.76-14.282" fill="#195ea5"/></g><g transform="translate(417.97 553.44)"><path d="m0 0c-1.306 0-2.616 0.358-3.786 1.077-1.263 0.785-31.242 19.414-41.897 32.097-9.557 11.382-30.992 26.654-43.148 33.854-3.41 2.03-4.532 6.429-2.507 9.834 2.016 3.41 6.411 4.54 9.825 2.521 12.139-7.196 35.573-23.582 46.813-36.962 4.904-5.828 16.035-14.129 25.527-20.641l-1.678 12.669c-10.952 5.356-20.795 19.647-22.898 22.851-0.079 0.122-0.145 0.245-0.219 0.363-4.874 8.449-21.509 18.376-28.144 21.824-9.856 3.314-21.316 11.908-22.617 12.88-0.124 0.114-0.25 0.211-0.373 0.312l-18.661 16.267c-0.784 0.693-1.415 1.538-1.84 2.498l-8.436 18.98-6.67-3.339c-7.205-3.278-12.184-2.156-15.145-0.662-4.905 2.472-6.737 7.038-7.324 9.068l-4.596 11.034c-1.517 3.655 0.201 7.862 3.869 9.388 3.65 1.52 7.857-0.206 9.383-3.866l4.781-11.486c0.245-0.579 0.32-0.653 0.398-1.275-9e-3 0.044 9e-3 0.026 0.027 0 0.385 0.026 1.205 0.188 2.419 0.749l13.161 6.587c1.753 0.868 3.786 0.986 5.635 0.324 1.84-0.644 3.339-2.047 4.132-3.83l10.838-24.393 17.272-15.049c3.243-2.445 12.362-8.708 18.686-10.697 0.381-0.127 0.745-0.281 1.096-0.452 2.681-1.363 26.299-13.686 34.419-27.482 4.755-7.135 13.801-17.381 18.635-18.266 3.067-0.552 5.424-3.023 5.833-6.113l4.298-32.544c0.364-2.743-0.88-5.456-3.212-6.973-1.188-0.762-2.538-1.147-3.896-1.147" fill="#195ea5"/></g><g transform="translate(270.6 528.56)"><path d="m0 0c-0.785 0-1.582 0.127-2.371 0.408-49.009 17.117-65.39 45.608-70.509 66.486-5.25 21.403 0.035 39.108 0.92 41.838 1.973 7.455 7.517 13.358 12.889 19.085 2.98 3.164 5.794 6.162 7.494 8.941 3.444 5.644 9.851 26.233 13.077 37.89 1.061 3.813 5.018 6.048 8.835 5.005 3.817-1.061 6.065-5.023 5.005-8.835-0.912-3.287-9.041-32.334-14.673-41.541-2.463-4.036-5.929-7.721-9.272-11.294-4.181-4.457-8.511-9.062-9.501-13.024-0.053-0.215-0.115-0.425-0.194-0.631-0.854-2.503-20.172-62.134 60.67-90.383 3.734-1.298 5.715-5.394 4.404-9.141-1.034-2.95-3.807-4.804-6.774-4.804" fill="#195ea5"/></g><g transform="translate(319.78 554.14)"><path d="m0 0c-0.425-2.468-2.13-4.632-4.658-5.53-23.113-8.292-34.775-20.901-34.893-21.023-0.075-0.084-0.167-0.188-0.246-0.267-1.147-1.149-1.253-1.744-1.253-1.744 0.057-1.249 3.869-4.554 7.678-6.237 0.105-0.044 0.211-0.096 0.315-0.149 7.315-3.668 17.67 0.382 21.049 2.244 18.678 9.751 30.73 24.971 32.763 27.648 1.131 2.359 1.069 3.52 0.982 3.691-0.153 0.315-1.131 0.858-2.108 1.117l-9.637-0.434c-0.28-0.013-0.565-0.013-0.854 9e-3zm-26.146-50.783c-4.281 0-8.821 0.78-13.168 2.918-2.682 1.201-13.994 6.81-15.843 16.627-0.666 3.563-0.324 8.967 5.093 14.444 1.599 1.736 14.676 15.273 39.638 24.437 0.018 0.535 0.097 1.095 0.241 1.63l4.299 16.268c0.11 0.372 0.229 0.731 0.382 1.077 2.572 5.777 9.321 9.936 11.894 11.347 3.155 2.287 2.852 6.442 2.844 6.485-0.026 0.255-0.044 0.522-0.044 0.789 0 18.442-8.589 27.606-8.953 27.987-0.096 0.1-0.237 0.25-0.329 0.35-2.419 2.826-6.201 2.231-6.881 2.082l-21.762-7.406c-9.54-4.563-15.886-1.14-17.07-0.395-0.539 0.337-1.025 0.741-1.459 1.201-7.297 7.862-10.237 32.281-10.973 39.578-0.391 3.944 2.48 7.454 6.432 7.853 3.95 0.39 7.455-2.472 7.854-6.421 1.227-12.279 3.971-25.014 6.263-29.743 0.683 0.088 1.678 0.337 3.001 1.004 0.286 0.136 0.592 0.267 0.899 0.372l22.49 7.648c0.118 0.052 0.25 0.088 0.386 0.123 4.808 1.341 14.721 1.476 21.597-6.395 1.844-1.98 12.748-14.606 12.867-37.491 0.393-4.957-1.145-14.203-9.423-19.717-0.192-0.132-0.395-0.259-0.605-0.363-2.261-1.223-4.925-3.305-5.741-4.453l-1.88-7.1 3.869-0.284 10.102 0.46c0.43 0.021 0.872 0 1.307-0.057 0.964-0.128 9.509-1.508 13.304-8.835 1.766-3.419 3.007-9.208-1.218-17.363-0.158-0.307-0.333-0.601-0.539-0.89-0.591-0.815-14.659-20.181-37.916-32.311-0.404-0.237-9.852-5.456-20.958-5.456" fill="#195ea5"/></g><g transform="translate(252.42 703.68)"><path d="m0 0s2.397 51.2 43.058 80.855l5.745 6.219-12.447 19.138s-6.213 7.183-19.137 1.919c0 0-41.147-12.437-58.369-45.936 0 0-8.617-13.875 1.919-28.705 0 0 10.522-11 13.392-19.142 0 0 6.224-11.955 25.839-14.348" fill="#195ea5"/></g><g transform="translate(706.67 734.26)"><path d="m0 0s19.063 19.059 36.65 15.54c0 0 25.514-2.349 42.807-25.799 0 0 10.26-13.774 7.621-30.498 0 0-2.059-11.433-1.753-15.829 0.285-4.404-0.298-8.506-2.353-11.723-2.051-3.226-10.851-16.723-10.851-16.723s-5.267-6.74-16.114-7.617l-9.685-1.753s-9.379-2.651-11.135 7.323c0 0-3.226 11.439-6.741 18.77-3.523 7.319-5.285 10.847-5.574 26.974-0.294 16.118-17.89 37.224-22.872 41.335" fill="#195ea5"/></g><g transform="translate(983.03 980.46)"><path d="m0 0s10.763 7.174 24.405-1.429l24.398-17.236s10.771-10.759 13.641-27.263c2.863-16.517 2.863-22.254 2.148-27.994 0 0 0.715-7.179-6.459-10.045l-10.764-2.87-20.816 28.709s-10.044 14.348-22.968 15.79l-17.219-0.719-6.455 16.495s-7.901 12.933 20.089 26.562" fill="#195ea5"/></g></g></g></g><g transform="translate(132.29 -62.744)"><g transform="matrix(.35278 0 0 -.35278 -80.102 87.795)"><path d="m0 0c-5.289 0-5.409-0.132-5.409-3.735v-18.559c0-11.986 0.773-13.144 6.566-13.923l4.125-0.51c1.037-0.773 1.037-3.73 0-4.514-7.34 0.263-13.791 0.389-19.584 0.389-6.182 0-12.634-0.126-19.2-0.389-1.031 0.784-1.031 3.741 0 4.514l3.094 0.395c5.92 0.763 6.572 2.052 6.572 14.038v47.94c0 11.975-0.652 13.27-6.572 14.038l-3.094 0.389c-1.031 0.768-1.031 3.736 0 4.504 6.315-0.247 13.018-0.379 19.2-0.379 5.793 0 12.244 0.132 17.911 0.379 1.021-0.768 1.021-3.736 0-4.504l-2.699-0.389c-5.546-0.768-6.319-2.063-6.319-14.038v-14.949c0-3.741 0.12-3.878 5.409-3.878h26.803c5.42 0 5.42 0.137 5.42 3.878v14.949c0 11.975-0.659 13.012-6.583 13.922l-3.478 0.505c-1.026 0.768-1.026 3.736 0 4.504 7.093-0.247 13.412-0.379 19.589-0.379 6.319 0 12.239 0.132 18.163 0.379 1.043-0.768 1.043-3.736 0-4.504l-2.578-0.389c-5.93-0.894-6.692-2.063-6.692-14.038v-47.94c0-11.986 0.762-12.886 6.692-13.923l3.1-0.51c1.031-0.773 1.031-3.73 0-4.514-6.446 0.263-12.754 0.389-18.685 0.389-6.445 0-12.76-0.126-18.947-0.389-1.027 0.784-1.027 3.741 0 4.514l2.836 0.395c5.924 0.763 6.583 2.052 6.583 14.038v18.559c0 3.603 0 3.735-5.42 3.735z" fill="#195ea5"/></g><g transform="matrix(.35278 0 0 -.35278 -45.368 84.021)"><path d="m0 0c0-3.61 0.126-3.868 3.604-3.868h8.892c6.703 0 8.25 0.905 9.534 7.082l0.642 3.231c0.905 1.027 4.125 1.027 4.778-0.132-0.263-4.125-0.389-8.754-0.389-13.665 0-4.904 0.126-9.534 0.389-13.659-0.653-1.157-3.873-1.278-4.778-0.132l-0.642 3.232c-1.284 6.187-2.831 7.214-9.534 7.214h-8.892c-3.478 0-3.604-0.143-3.604-3.999v-15.333c0-5.925 0.516-10.05 2.057-12.239 1.678-2.32 4.125-3.351 13.533-3.351 11.207 0 15.585 0.394 22.678 14.937 1.026 1.421 4.252 0.911 4.767-0.636-0.515-6.709-3.604-17.126-5.409-20.621-6.841 0.263-19.2 0.395-29.766 0.395h-16.758c-6.183 0-12.497-0.132-22.163-0.395-1.025 0.785-1.025 3.868 0 4.515l6.062 0.904c5.793 0.901 6.572 1.679 6.572 13.529v48.065c0 11.723-0.779 12.496-6.572 13.655l-3.22 0.647c-1.163 0.768-1.037 3.735 0.252 4.52 6.068-0.263 12.37-0.395 18.564-0.395h27.302c8.256 0 15.602 0.132 17.281 0.395 0.126-2.069 1.031-11.35 1.673-19.99-0.522-1.416-3.473-1.662-4.767-0.515-1.416 4.508-3.221 8.381-4.899 10.186-2.447 2.442-6.32 3.993-12.623 3.993h-10.307c-4.257 0-4.257-0.258-4.257-5.024z" fill="#195ea5"/></g><g transform="matrix(.35278 0 0 -.35278 -15.592 89.525)"><path d="m0 0c2.967 0 3.609 0.395 2.577 3.752l-3.356 10.429c-1.794 5.546-4.12 12.502-5.278 15.195-1.031-2.951-3.609-9.913-5.541-15.843l-3.219-9.666c-1.168-3.472-0.527-3.867 2.704-3.867zm-14.691-6.813c-3.094 0-3.484-0.137-4.251-2.595l-5.026-14.938c-0.778-2.578-0.905-3.609-0.905-4.63 0-0.784 1.679-1.557 5.288-2.194l3.868-0.652c0.774-0.906 1.026-3.868-0.268-4.504-4.499 0.252-9.146 0.252-14.554 0.373-4.378 0-7.346-0.373-13.271-0.373-1.415 0.763-1.294 3.472-0.389 4.504l3.472 0.384c3.106 0.383 5.678 1.42 7.867 6.451 2.189 5.145 4.641 11.339 8.114 20.615l11.723 31.444c2.967 8.118 5.162 12.622 4.772 16.359 6.193 1.42 10.966 7.723 11.218 7.723 1.668 0 2.441-0.636 2.963-2.567 1.031-3.736 2.578-8.514 5.798-17.648l17.527-50.517c2.699-7.735 3.861-10.697 8.623-11.477l4.904-0.767c0.774-0.648 1.027-3.741-0.132-4.504-6.187 0.252-13.143 0.373-19.841 0.373-6.452 0-11.476-0.121-17.401-0.373-1.415 0.763-1.668 3.472-0.258 4.504l4.125 0.652c2.968 0.505 3.479 1.41 3.479 2.194 0 0.883-0.9 3.989-2.441 8.761l-3.49 11.075c-0.641 2.052-1.673 2.327-6.181 2.327z" fill="#195ea5"/></g><g transform="matrix(.35278 0 0 -.35278 9.6852 85.34)"><path d="m0 0c0-4.515 0.384-4.898 7.981-4.898 4.652 0 7.345 1.157 9.803 3.614 2.189 2.189 4.636 6.304 4.636 13.912 0 11.597-6.83 19.074-16.88 19.074-5.288 0-5.54-0.39-5.54-6.578zm-17.653 16.358c0 12.891-0.258 14.318-5.672 15.086l-3.479 0.516c-1.289 0.646-1.289 3.867 0.258 4.509 9.666 0.636 19.721 1.163 31.949 1.163 10.955 0 20.368-1.679 25.267-4.641 7.466-4.388 11.334-10.829 11.334-19.08 0-11.471-7.725-16.358-13.66-19.32-1.283-0.637-1.283-1.415-0.642-2.842 8.509-17.258 13.786-26.918 19.98-32.212 3.34-2.71 6.692-3.477 8.623-3.603 1.163-0.648 1.163-2.574 0.521-3.347-2.068-0.911-6.182-1.157-10.187-1.157-11.844 0-19.327 4.24-24.993 13.516-4.125 6.846-7.093 13.15-10.055 19.974-1.542 3.477-3.61 4.515-6.83 4.515-4.509 0-4.761-0.258-4.761-2.836v-15.86c0-11.838 0.773-12.743 6.566-13.774l3.483-0.648c0.9-0.647 0.9-3.73 0-4.514-6.829 0.258-12.759 0.388-18.947 0.388-6.435 0-12.107-0.13-18.805-0.388-1.031 0.784-1.031 3.867 0 4.514l3.477 0.648c5.799 1.031 6.573 1.936 6.573 13.774z" fill="#195ea5"/></g><g transform="matrix(.35278 0 0 -.35278 37.69 75.613)"><path d="m0 0c0 3.1 0 3.741-3.099 3.741h-7.987c-9.397 0-12.112-5.156-15.985-14.564-1.532-0.78-3.989-0.522-4.762 1.157 2.71 8.887 3.352 16.88 4.257 21.915 0.505 0.379 1.163 0.643 1.805 0.643 0.641 0 1.283-0.132 1.798-0.522 0.648-2.194 1.033-2.704 10.829-2.704h47.94c8.509 0 10.429 0.131 11.592 2.83 0.515 0.264 0.905 0.396 1.678 0.396 0.768 0 1.673-0.522 1.925-0.901-1.283-4.372-2.194-14.822-1.925-22.162-0.647-1.174-4.12-1.432-4.761-0.39-2.205 8.241-4.01 14.302-13.676 14.302h-7.73c-3.083 0-3.472-0.395-3.472-3.741v-56.821c0-11.981 0.773-13.023 6.566-13.785l5.156-0.654c0.912-0.773 0.912-3.741 0-4.503-8.376 0.252-14.822 0.373-20.62 0.373-6.182 0-12.886-0.121-21.893-0.373-1.042 0.762-1.042 3.73 0 4.503l5.793 0.654c5.798 0.636 6.571 1.804 6.571 13.785z" fill="#195ea5"/></g><g transform="matrix(.35278 0 0 -.35278 76.377 86.477)"><path d="m0 0c-1.685 0-1.806-0.137-1.806-2.968v-19.32c0-7.22 0-15.212 9.014-15.212 1.81 0 3.878 0.895 5.419 1.947 1.284-0.4 2.058-1.821 1.806-3.362-3.605-3.867-10.578-7.478-18.559-7.478-10.697 0-14.433 6.183-14.433 14.692v28.733c0 2.71-0.121 2.968-2.452 2.968h-3.988c-1.415 0.521-1.805 3.089-0.773 3.988 3.994 1.421 7.597 3.737 10.691 5.81 2.326 1.673 5.546 4.372 9.54 10.044 0.905 0.521 3.22 0.395 3.856-0.647v-9.672c0-2.435 0.137-2.561 2.457-2.561h11.471c0.643-0.511 1.027-1.289 1.027-2.452 0-1.421-0.384-3.741-1.679-4.51z" fill="#195ea5"/></g><g transform="matrix(.35278 0 0 -.35278 88.969 92.476)"><path d="m0 0c0-13.528 4.257-23.457 11.723-23.457 7.345 0 9.802 8.377 9.666 19.974-0.132 12.485-3.736 23.319-11.081 23.319-5.672 0-10.308-5.793-10.308-19.836m-18.547-2.836c-0.132 18.432 14.422 28.603 29.628 28.603s28.871-9.277 28.871-27.446c0-18.81-13.791-27.703-29.644-27.703-15.333 0-28.735 8.761-28.855 26.546" fill="#195ea5"/></g><g transform="matrix(.35278 0 0 -.35278 128.98 87.795)"><path d="m0 0c-5.288 0-5.415-0.132-5.415-3.735v-18.559c0-11.986 0.779-13.144 6.572-13.923l4.131-0.51c1.025-0.773 1.025-3.73 0-4.514-7.356 0.263-13.797 0.389-19.59 0.389-6.181 0-12.633-0.126-19.205-0.389-1.026 0.784-1.026 3.741 0 4.514l3.088 0.395c5.925 0.763 6.578 2.052 6.578 14.038v47.94c0 11.975-0.653 13.27-6.578 14.038l-3.088 0.389c-1.026 0.768-1.026 3.736 0 4.504 6.32-0.247 13.024-0.379 19.205-0.379 5.793 0 12.234 0.132 17.906 0.379 1.031-0.768 1.031-3.736 0-4.504l-2.694-0.389c-5.546-0.768-6.325-2.063-6.325-14.038v-14.949c0-3.741 0.127-3.878 5.415-3.878h26.797c5.42 0 5.42 0.137 5.42 3.878v14.949c0 11.975-0.653 13.012-6.582 13.922l-3.468 0.505c-1.036 0.768-1.036 3.736 0 4.504 7.088-0.247 13.391-0.379 19.584-0.379 6.314 0 12.233 0.132 18.164 0.379 1.036-0.768 1.036-3.736 0-4.504l-2.579-0.389c-5.913-0.894-6.709-2.063-6.709-14.038v-47.94c0-11.986 0.796-12.886 6.709-13.923l3.095-0.51c1.031-0.773 1.031-3.73 0-4.514-6.447 0.263-12.749 0.389-18.68 0.389-6.445 0-12.765-0.126-18.947-0.389-1.032 0.784-1.032 3.741 0 4.514l2.831 0.395c5.929 0.763 6.582 2.052 6.582 14.038v18.559c0 3.603 0 3.735-5.42 3.735z" fill="#195ea5"/></g><g transform="matrix(.35278 0 0 -.35278 163.71 84.021)"><path d="m0 0c0-3.61 0.121-3.868 3.609-3.868h8.893c6.698 0 8.234 0.905 9.534 7.082l0.642 3.231c0.905 1.027 4.126 1.027 4.761-0.132-0.252-4.125-0.373-8.754-0.373-13.665 0-4.904 0.121-9.534 0.373-13.659-0.635-1.157-3.856-1.278-4.761-0.132l-0.642 3.232c-1.3 6.187-2.836 7.214-9.534 7.214h-8.893c-3.488 0-3.609-0.143-3.609-3.999v-15.333c0-5.925 0.521-10.05 2.058-12.239 1.683-2.32 4.125-3.351 13.538-3.351 11.208 0 15.585 0.394 22.673 14.937 1.031 1.421 4.262 0.911 4.766-0.636-0.504-6.709-3.603-17.126-5.403-20.621-6.835 0.263-19.205 0.395-29.771 0.395h-16.754c-6.181 0-12.502-0.132-22.162-0.395-1.031 0.785-1.031 3.868 0 4.515l6.062 0.904c5.793 0.901 6.566 1.679 6.566 13.529v48.065c0 11.723-0.773 12.496-6.566 13.655l-3.231 0.647c-1.152 0.768-1.031 3.735 0.263 4.52 6.063-0.263 12.371-0.395 18.548-0.395h27.324c8.25 0 15.596 0.132 17.264 0.395 0.137-2.069 1.036-11.35 1.678-19.99-0.516-1.416-3.484-1.662-4.761-0.515-1.421 4.508-3.221 8.381-4.905 10.186-2.441 2.442-6.314 3.993-12.633 3.993h-10.303c-4.251 0-4.251-0.258-4.251-5.024z" fill="#195ea5"/></g><g transform="matrix(.35278 0 0 -.35278 193.48 89.525)"><path d="m0 0c2.968 0 3.609 0.395 2.572 3.752l-3.345 10.429c-1.805 5.546-4.125 12.502-5.289 15.195-1.032-2.951-3.604-9.913-5.53-15.843l-3.23-9.666c-1.163-3.472-0.505-3.867 2.71-3.867zm-14.691-6.813c-3.094 0-3.484-0.137-4.246-2.595l-5.036-14.938c-0.767-2.578-0.894-3.609-0.894-4.63 0-0.784 1.674-1.557 5.277-2.194l3.873-0.652c0.774-0.906 1.026-3.868-0.268-4.504-4.498 0.252-9.146 0.252-14.549 0.373-4.383 0-7.345-0.373-13.275-0.373-1.416 0.763-1.284 3.472-0.389 4.504l3.488 0.384c3.083 0.383 5.656 1.42 7.851 6.451 2.188 5.145 4.646 11.339 8.119 20.615l11.733 31.444c2.951 8.118 5.14 12.622 4.756 16.359 6.193 1.42 10.961 7.723 11.219 7.723 1.662 0 2.44-0.636 2.962-2.567 1.025-3.736 2.573-8.514 5.793-17.648l17.532-50.517c2.699-7.735 3.862-10.697 8.629-11.477l4.898-0.767c0.774-0.648 1.027-3.741-0.136-4.504-6.183 0.252-13.139 0.373-19.842 0.373-6.435 0-11.471-0.121-17.396-0.373-1.409 0.763-1.673 3.472-0.252 4.504l4.12 0.652c2.968 0.505 3.478 1.41 3.478 2.194 0 0.883-0.894 3.989-2.446 8.761l-3.484 11.075c-0.642 2.052-1.668 2.327-6.182 2.327z" fill="#195ea5"/></g><g transform="matrix(.35278 0 0 -.35278 218.76 85.34)"><path d="m0 0c0-4.515 0.389-4.898 7.987-4.898 4.646 0 7.356 1.157 9.797 3.614 2.195 2.189 4.636 6.304 4.636 13.912 0 11.597-6.824 19.074-16.88 19.074-5.288 0-5.54-0.39-5.54-6.578zm-17.648 16.358c0 12.891-0.263 14.318-5.677 15.086l-3.473 0.516c-1.295 0.646-1.295 3.867 0.252 4.509 9.666 0.636 19.727 1.163 31.966 1.163 10.949 0 20.351-1.679 25.25-4.641 7.482-4.388 11.334-10.829 11.334-19.08 0-11.471-7.725-16.358-13.659-19.32-1.274-0.637-1.274-1.415-0.637-2.842 8.503-17.258 13.791-26.918 19.974-32.212 3.356-2.71 6.703-3.477 8.633-3.603 1.159-0.648 1.159-2.574 0.516-3.347-2.057-0.911-6.187-1.157-10.176-1.157-11.86 0-19.337 4.24-25.009 13.516-4.114 6.846-7.082 13.15-10.039 19.974-1.552 3.477-3.62 4.515-6.84 4.515-4.515 0-4.767-0.258-4.767-2.836v-15.86c0-11.838 0.778-12.743 6.571-13.774l3.484-0.648c0.899-0.647 0.899-3.73 0-4.514-6.835 0.258-12.765 0.388-18.948 0.388-6.434 0-12.112-0.13-18.81-0.388-1.031 0.784-1.031 3.867 0 4.514l3.477 0.648c5.799 1.031 6.578 1.936 6.578 13.774z" fill="#195ea5"/></g><g transform="matrix(.35278 0 0 -.35278 246.77 75.613)"><path d="m0 0c0 3.1 0 3.741-3.095 3.741h-7.987c-9.402 0-12.117-5.156-15.98-14.564-1.542-0.78-3.999-0.522-4.761 1.157 2.699 8.887 3.341 16.88 4.246 21.915 0.515 0.379 1.163 0.643 1.805 0.643 0.641 0 1.294-0.132 1.804-0.522 0.643-2.194 1.031-2.704 10.823-2.704h47.94c8.509 0 10.429 0.131 11.592 2.83 0.52 0.264 0.905 0.396 1.683 0.396 0.775 0 1.668-0.522 1.92-0.901-1.283-4.372-2.188-14.822-1.92-22.162-0.652-1.174-4.125-1.432-4.766-0.39-2.195 8.241-3.994 14.302-13.659 14.302h-7.747c-3.083 0-3.472-0.395-3.472-3.741v-56.821c0-11.981 0.773-13.023 6.572-13.785l5.156-0.654c0.906-0.773 0.906-3.741 0-4.503-8.377 0.252-14.811 0.373-20.621 0.373-6.181 0-12.88-0.121-21.898-0.373-1.031 0.762-1.031 3.73 0 4.503l5.799 0.654c5.792 0.636 6.566 1.804 6.566 13.785z" fill="#195ea5"/></g><g transform="matrix(.35278 0 0 -.35278 -82.012 138.94)"><path d="m0 0c0-3.468 0.137-3.862 3.609-3.862h9.918c6.835 0 8.25 0.905 9.535 7.23l0.652 3.083c0.894 1.157 4.126 1.036 4.888-0.132-0.252-4.126-0.39-8.886-0.39-13.791 0-4.761 0.138-9.523 0.39-13.39-0.762-1.159-3.994-1.301-4.888-0.132l-0.652 3.104c-1.285 6.177-2.7 7.198-9.535 7.198h-9.918c-3.472 0-3.609-0.384-3.609-3.851v-17.406c0-11.992 0.773-13.012 6.565-13.791l4.768-0.637c0.91-0.773 0.91-3.735 0-4.515-7.981 0.269-14.296 0.39-20.479 0.39-5.929 0-12.375-0.121-20.11-0.39-1.025 0.78-1.025 3.742 0 4.515l4.263 0.637c5.793 0.905 6.566 1.799 6.566 13.791v47.939c0 11.981-0.773 13.144-6.566 14.055l-2.578 0.373c-1.163 0.768-1.163 3.999 0.252 4.504 5.541-0.242 11.986-0.39 18.173-0.39h27.056c8.251 0 15.591 0.148 17.396 0.39 0-2.19 0-11.466 0.252-20.089-0.505-1.41-3.335-1.559-4.888-0.516-1.415 5.283-2.458 8.371-3.735 10.038-2.195 2.716-6.062 4.258-12.634 4.258h-10.045c-4.256 0-4.256-0.258-4.256-5.277z" fill="#195ea5"/></g><g transform="matrix(.35278 0 0 -.35278 -45.188 128.12)"><path d="m0 0c-15.854 0-24.356-14.822-24.356-36.348 0-15.716 5.541-40.972 26.545-40.972 16.879 0 23.446 16.495 23.446 37.368 0 22.042-9.655 39.952-25.635 39.952m46.25-38.268c0-28.092-18.811-44.983-46.508-44.983-25.903 0-44.719 17.017-44.719 43.946 0 25.514 19.068 45.236 46.003 45.236 26.809 0 45.224-18.043 45.224-44.199" fill="#195ea5"/></g><g transform="matrix(.35278 0 0 -.35278 -16.182 133.3)"><path d="m0 0c0 11.98-0.773 12.754-6.572 13.906l-3.231 0.647c-1.026 0.773-1.152 3.604 0.269 4.378 6.182-0.247 12.628-0.39 18.81-0.39 6.32 0 12.622 0.143 18.816 0.39 1.026-0.774 1.026-3.605 0-4.378l-3.099-0.499c-5.793-1.053-6.566-2.074-6.566-14.054v-29.771c0-15.07 1.667-31.703 21.257-31.703 16.49 0 21.525 14.434 21.525 32.092v15.585c0 10.444-0.521 20.242-1.937 23.577-1.162 2.71-3.993 3.49-7.476 4.126l-3.473 0.647c-1.031 1.031-0.778 3.604 0 4.378 6.956-0.247 11.981-0.39 17.27-0.39 4.761 0 9.528 0.143 14.427 0.39 0.779-0.774 1.031-3.347 0-4.378l-2.321-0.499c-3.351-0.784-5.798-1.564-6.956-4.274-1.415-3.335-1.936-13.133-1.936-23.577v-14.432c0-12.108-1.158-23.2-8.24-31.066-5.677-6.046-15.09-9.266-25.519-9.266-9.792 0-18.558 1.558-25.52 7.225-6.698 5.535-9.528 15.08-9.528 29.112z" fill="#195ea5"/></g><g transform="matrix(.35278 0 0 -.35278 48.052 149.03)"><path d="m0 0c0-8.366 0-16.49 0.252-20.736-0.895-1.547-4.498-2.979-7.598-2.979-0.132 0-4.378 6.588-10.439 14.06l-29.76 36.842c-7.482 9.161-11.728 14.57-14.049 16.506-0.641-1.295-0.641-3.489-0.641-8.251v-24.998c0-10.444 0.52-20.099 1.93-23.589 1.163-2.704 4.115-3.597 7.472-4.119l3.609-0.51c1.032-1.042 0.78-3.752 0-4.509-6.966 0.247-12.106 0.384-17.263 0.384-4.773 0-9.545-0.137-14.427-0.384-0.785 0.757-1.048 3.467 0 4.509l2.183 0.384c3.472 0.648 6.05 1.541 7.093 4.245 1.415 3.49 1.805 13.145 1.805 23.589v32.728c0 7.088-0.138 9.14-0.911 10.944-1.026 2.189-2.83 3.736-7.345 4.383l-3.61 0.522c-0.9 1.025-0.768 4.119 0.515 4.514 6.063-0.258 12.497-0.395 17.786-0.395 4.382 0 8.118 0.137 10.829 0.395 1.277-5.815 9.665-15.596 21.257-29.387l10.828-12.759c5.661-6.699 9.403-11.202 12.365-14.164 0.521 1.278 0.521 3.471 0.521 5.793v17.779c0 10.433-0.521 20.099-1.936 23.588-1.158 2.699-3.994 3.609-7.478 4.114l-3.472 0.522c-1.037 1.025-0.774 3.735 0 4.514 6.956-0.258 11.981-0.395 17.263-0.395 4.773 0 9.403 0.137 14.439 0.395 0.773-0.779 1.026-3.489 0-4.514l-2.321-0.39c-3.357-0.505-5.803-1.547-6.96-4.246-1.421-3.489-1.937-13.155-1.937-23.588z" fill="#195ea5"/></g><g transform="matrix(.35278 0 0 -.35278 70.012 148.53)"><path d="m0 0c0-7.088 0.252-11.718 2.578-14.433 2.32-2.584 6.057-3.73 10.692-3.73 22.299 0 29.897 19.847 29.897 37.363 0 23.194-12.244 36.985-35.569 36.985-3.473 0-5.919-0.648-6.688-1.679-0.784-1.031-0.91-3.473-0.91-7.472zm-18.427 40.847c0 12.238-0.252 14.69-6.182 15.338l-2.447 0.257c-1.289 0.642-1.289 4.377 0.252 4.504 10.819 0.653 20.874 1.168 34.533 1.168 10.56 0 21.137-1.025 30.035-4.251 16.874-6.046 26.139-21.258 26.139-37.369 0-17.279-8.24-31.185-23.056-38.537-8.761-4.372-19.326-6.045-32.597-6.045-6.062 0-12.496 0.768-17.143 0.768-6.187 0-12.753-0.131-20.099-0.389-1.031 0.768-1.031 3.867 0 4.515l3.994 0.647c5.793 0.894 6.571 1.925 6.571 13.779z" fill="#195ea5"/></g><g transform="matrix(.35278 0 0 -.35278 114.79 144.08)"><path d="m0 0c2.963 0 3.604 0.384 2.578 3.741l-3.356 10.428c-1.805 5.547-4.126 12.508-5.284 15.207-1.031-2.963-3.604-9.918-5.545-15.843l-3.22-9.672c-1.158-3.477-0.517-3.861 2.715-3.861zm-14.69-6.819c-3.1 0-3.484-0.143-4.263-2.595l-5.014-14.938c-0.779-2.578-0.91-3.603-0.91-4.629 0-0.779 1.679-1.558 5.288-2.195l3.867-0.647c0.768-0.91 1.032-3.867-0.263-4.503-4.498 0.246-9.145 0.246-14.554 0.367-4.383 0-7.345-0.367-13.275-0.367-1.415 0.751-1.294 3.461-0.384 4.503l3.472 0.373c3.094 0.389 5.667 1.427 7.862 6.451 2.188 5.157 4.635 11.339 8.118 20.621l11.724 31.439c2.967 8.124 5.15 12.627 4.772 16.369 6.183 1.416 10.955 7.718 11.213 7.718 1.673 0 2.44-0.63 2.962-2.567 1.031-3.735 2.584-8.514 5.793-17.653l17.538-50.518c2.693-7.729 3.856-10.691 8.623-11.471l4.898-0.762c0.78-0.647 1.033-3.752-0.131-4.503-6.182 0.246-13.138 0.367-19.841 0.367-6.447 0-11.471-0.121-17.402-0.367-1.409 0.751-1.667 3.461-0.252 4.503l4.125 0.647c2.968 0.505 3.473 1.416 3.473 2.195 0 0.888-0.895 3.982-2.446 8.755l-3.484 11.086c-0.642 2.052-1.668 2.321-6.182 2.321z" fill="#195ea5"/></g><g transform="matrix(.35278 0 0 -.35278 142.98 130.17)"><path d="m0 0c0 3.105 0 3.736-3.099 3.736h-7.987c-9.397 0-12.112-5.151-15.98-14.559-1.541-0.78-3.994-0.516-4.761 1.152 2.698 8.892 3.346 16.891 4.251 21.915 0.51 0.384 1.163 0.642 1.805 0.642 0.636 0 1.289-0.131 1.798-0.521 0.643-2.194 1.033-2.699 10.829-2.699h47.94c8.503 0 10.429 0.132 11.592 2.836 0.515 0.253 0.905 0.384 1.678 0.384 0.774 0 1.667-0.521 1.92-0.905-1.278-4.367-2.183-14.806-1.92-22.151-0.653-1.169-4.126-1.433-4.767-0.395-2.189 8.239-4.004 14.301-13.659 14.301h-7.741c-3.088 0-3.478-0.384-3.478-3.736v-56.826c0-11.981 0.779-13.001 6.572-13.78l5.156-0.648c0.906-0.778 0.906-3.752 0-4.504-8.371 0.247-14.81 0.368-20.615 0.368-6.187 0-12.886-0.121-21.898-0.368-1.032 0.752-1.032 3.726 0 4.504l5.793 0.648c5.793 0.636 6.571 1.799 6.571 13.78z" fill="#195ea5"/></g><g transform="matrix(.35278 0 0 -.35278 178.3 150.12)"><path d="m0 0c0-12.106 0.773-13.018 6.703-14.043l3.605-0.642c1.025-0.779 0.899-3.741-0.132-4.52-6.956 0.258-13.271 0.39-19.322 0.39-6.198 0-12.627-0.132-19.588-0.39-1.027 0.779-1.027 3.741 0 4.52l3.603 0.642c5.931 1.025 6.704 1.937 6.704 14.043v47.419c0 12.106-0.773 13.018-6.704 14.043l-3.603 0.642c-1.027 0.768-1.027 3.742 0 4.52 6.961-0.258 13.39-0.395 19.588-0.395 6.051 0 12.498 0.137 19.454 0.395 1.025-0.778 1.025-3.752 0-4.52l-3.605-0.642c-5.93-1.025-6.703-1.937-6.703-14.043z" fill="#195ea5"/></g><g transform="matrix(.35278 0 0 -.35278 207.08 128.12)"><path d="m0 0c-15.848 0-24.356-14.822-24.356-36.348 0-15.716 5.54-40.972 26.545-40.972 16.879 0 23.452 16.495 23.452 37.368 0 22.042-9.662 39.952-25.641 39.952m46.256-38.268c0-28.092-18.817-44.983-46.508-44.983-25.909 0-44.726 17.017-44.726 43.946 0 25.514 19.069 45.236 46.009 45.236 26.792 0 45.225-18.043 45.225-44.199" fill="#195ea5"/></g><g transform="matrix(.35278 0 0 -.35278 260.77 149.03)"><path d="m0 0c0-8.366 0-16.49 0.252-20.736-0.889-1.547-4.509-2.979-7.598-2.979-0.126 0-4.377 6.588-10.438 14.06l-29.761 36.842c-7.476 9.161-11.728 14.57-14.049 16.506-0.641-1.295-0.641-3.489-0.641-8.251v-24.998c0-10.444 0.505-20.099 1.936-23.589 1.152-2.704 4.114-3.597 7.466-4.119l3.604-0.51c1.037-1.042 0.774-3.752 0-4.509-6.956 0.247-12.101 0.384-17.263 0.384-4.768 0-9.534-0.137-14.433-0.384-0.768 0.757-1.026 3.467 0 4.509l2.189 0.384c3.483 0.648 6.061 1.541 7.088 4.245 1.431 3.49 1.804 13.145 1.804 23.589v32.728c0 7.088-0.121 9.14-0.9 10.944-1.026 2.189-2.83 3.736-7.345 4.383l-3.604 0.522c-0.906 1.025-0.774 4.119 0.51 4.514 6.062-0.258 12.496-0.395 17.785-0.395 4.382 0 8.119 0.137 10.818 0.395 1.294-5.815 9.665-15.596 21.268-29.387l10.818-12.759c5.677-6.699 9.413-11.202 12.381-14.164 0.505 1.278 0.505 3.471 0.505 5.793v17.779c0 10.433-0.505 20.099-1.921 23.588-1.162 2.699-3.993 3.609-7.477 4.114l-3.488 0.522c-1.027 1.025-0.763 3.735 0 4.514 6.972-0.258 11.985-0.395 17.273-0.395 4.774 0 9.404 0.137 14.428 0.395 0.773-0.779 1.037-3.489 0-4.514l-2.31-0.39c-3.357-0.505-5.797-1.547-6.966-4.246-1.415-3.489-1.931-13.155-1.931-23.588z" fill="#195ea5"/></g><path d="m260 116.49h-348.62v-5.0726h348.62z" fill="#195ea5"/><g transform="matrix(.35278 0 0 -.35278 -87.106 169.9)"><path d="m0 0h7.877v-28.662h17.856v-7.153h-25.733z" fill="#195ea5"/></g><g transform="matrix(.35278 0 0 -.35278 -75.942 169.9)"><path d="m0 0h27.012v-7.011h-19.178v-7.262h16.879v-7.017h-16.879v-7.521h19.436v-7.004h-27.27z" fill="#195ea5"/></g><g transform="matrix(.35278 0 0 -.35278 -56.598 177.25)"><path d="m0 0-4.756 11.618-4.756-11.618zm-8.283 21.087h7.262l15.344-36.064h-8.245l-3.269 8.027h-15.146l-3.269-8.027h-8.032z" fill="#195ea5"/></g><g transform="matrix(.35278 0 0 -.35278 -52.488 169.9)"><path d="m0 0h8.689l9.371-25.223 9.358 25.223h8.497l-14.482-36.079h-6.951z" fill="#195ea5"/></g><g transform="matrix(.35278 0 0 -.35278 -37.878 169.9)"><path d="m0 0h27.018v-7.011h-19.184v-7.262h16.879v-7.017h-16.879v-7.521h19.436v-7.004h-27.27z" fill="#195ea5"/></g><g transform="matrix(.35278 0 0 -.35278 -13.122 177.25)"><path d="m0 0-4.761 11.618-4.751-11.618zm-8.283 21.087h7.258l15.348-36.064h-8.245l-3.268 8.027h-15.147l-3.269-8.027h-8.037z" fill="#195ea5"/></g><g transform="matrix(.35278 0 0 -.35278 -.71593 169.9)"><path d="m0 0h8.497l9.414-15.146 9.413 15.146h8.492v-35.815h-7.828v23.379l-10.077-15.305h-0.214l-9.973 15.146v-23.22h-7.724z" fill="#195ea5"/></g><g transform="matrix(.35278 0 0 -.35278 22.199 177.25)"><path d="m0 0-4.756 11.618-4.756-11.618zm-8.283 21.087h7.268l15.344-36.064h-8.245l-3.27 8.027h-15.146l-3.27-8.027h-8.03z" fill="#195ea5"/></g><g transform="matrix(.35278 0 0 -.35278 34.79 176.05)"><path d="m0 0c3.84 0 6.04 2.052 6.04 5.068v0.1c0 3.379-2.359 5.129-6.193 5.129h-7.834v-10.297zm-15.865 17.396h16.375c4.553 0 8.081-1.274 10.445-3.632 1.985-1.987 3.061-4.795 3.061-8.185v-0.099c0-5.776-3.121-9.414-7.663-11.103l8.733-12.787h-9.2l-7.68 11.46h-6.193v-11.46h-7.878z" fill="#195ea5"/></g><g transform="matrix(.35278 0 0 -.35278 42.238 169.9)"><path d="m0 0h7.872v-15.655l14.531 15.655h9.513l-14.576-15.2 15.239-20.615h-9.457l-11.103 15.25-4.147-4.301v-10.949h-7.872z" fill="#195ea5"/></g><g transform="matrix(.35278 0 0 -.35278 70.78 176.26)"><path d="m0 0v0.115c0 6.127-4.498 11.251-10.851 11.251-6.336 0-10.741-5.013-10.741-11.146v-0.105c0-6.155 4.504-11.257 10.851-11.257 6.342 0 10.741 5.009 10.741 11.142m-29.831 0v0.115c0 10.182 8.042 18.514 19.09 18.514 11.053 0 18.98-8.239 18.98-18.409v-0.105c0-10.181-8.03-18.525-19.09-18.525-11.047 0-18.98 8.239-18.98 18.41" fill="#195ea5"/></g><g transform="matrix(.35278 0 0 -.35278 76.15 169.9)"><path d="m0 0h7.269l16.78-22.052v22.052h7.778v-35.815h-6.709l-17.34 22.765v-22.765h-7.778z" fill="#195ea5"/></g><g transform="matrix(.35278 0 0 -.35278 103.07 177.25)"><path d="m0 0-4.751 11.618-4.762-11.618zm-8.284 21.087h7.268l15.339-36.064h-8.24l-3.274 8.027h-15.141l-3.275-8.027h-8.026z" fill="#195ea5"/></g><g transform="matrix(.35278 0 0 -.35278 114.92 176.26)"><path d="m0 0v0.115c0 10.182 7.674 18.514 18.667 18.514 6.759 0 10.796-2.254 14.126-5.524l-5.014-5.782c-2.764 2.507-5.585 4.043-9.167 4.043-6.028 0-10.379-5.013-10.379-11.146v-0.105c0-6.155 4.252-11.257 10.379-11.257 4.093 0 6.606 1.641 9.409 4.186l5.025-5.068c-3.682-3.928-7.779-6.386-14.692-6.386-10.527 0-18.354 8.13-18.354 18.41" fill="#195ea5"/></g><g transform="matrix(.35278 0 0 -.35278 128.79 169.9)"><path d="m0 0h7.883v-14.175h14.526v14.175h7.878v-35.815h-7.878v14.372h-14.526v-14.372h-7.883z" fill="#195ea5"/></g><path d="m142.63 169.9h2.7792v12.635h-2.7792z" fill="#195ea5"/><g transform="matrix(.35278 0 0 -.35278 148.56 169.9)"><path d="m0 0h7.878v-28.662h17.851v-7.153h-25.729z" fill="#195ea5"/></g><g transform="matrix(.35278 0 0 -.35278 164.65 180.03)"><path d="m0 0c6.445 0 10.796 4.356 10.796 10.703v0.105c0 6.346-4.351 10.79-10.796 10.79h-6.084v-21.598zm-13.956 28.713h13.956c11.262 0 19.035-7.725 19.035-17.813v-0.092c0-10.083-7.773-17.912-19.035-17.912h-13.956z" fill="#195ea5"/></g><g transform="matrix(.35278 0 0 -.35278 172.88 174.58)"><path d="m0 0c3.526 0.356 5.266 2.15 5.014 5.063h-3.171v8.19h8.289v-6.912c0-6.753-3.391-9.462-9.469-9.572z" fill="#195ea5"/></g><g transform="matrix(.35278 0 0 -.35278 178.13 180.7)"><path d="m0 0 4.657 5.573c3.22-2.649 6.605-4.344 10.681-4.344 3.23 0 5.179 1.284 5.179 3.368v0.11c0 2.002-1.229 3.017-7.214 4.548-7.225 1.849-11.877 3.845-11.877 10.954v0.094c0 6.516 5.222 10.801 12.541 10.801 5.221 0 9.665-1.64 13.297-4.547l-4.092-5.936c-3.166 2.199-6.298 3.527-9.316 3.527-3.016 0-4.596-1.382-4.596-3.122v-0.092c0-2.36 1.536-3.127 7.723-4.724 7.258-1.893 11.356-4.492 11.356-10.735v-0.099c0-7.104-5.426-11.103-13.138-11.103-5.436 0-10.911 1.893-15.201 5.727" fill="#195ea5"/></g><g transform="matrix(.35278 0 0 -.35278 195.95 169.9)"><path d="m0 0h7.872v-14.175h14.531v14.175h7.878v-35.815h-7.878v14.372h-14.531v-14.372h-7.872z" fill="#195ea5"/></g><g transform="matrix(.35278 0 0 -.35278 209.66 169.9)"><path d="m0 0h27.012v-7.011h-19.178v-7.262h16.874v-7.017h-16.874v-7.521h19.43v-7.004h-27.264z" fill="#195ea5"/></g><g transform="matrix(.35278 0 0 -.35278 229 177.25)"><path d="m0 0-4.756 11.618-4.757-11.618zm-8.289 21.087h7.258l15.354-36.064h-8.228l-3.282 8.027h-15.145l-3.275-8.027h-8.031z" fill="#195ea5"/></g><g transform="matrix(.35278 0 0 -.35278 241.6 176.05)"><path d="m0 0c3.835 0 6.04 2.052 6.04 5.068v0.1c0 3.379-2.359 5.129-6.199 5.129h-7.818v-10.297zm-15.864 17.396h16.369c4.558 0 8.086-1.274 10.444-3.632 1.991-1.987 3.068-4.795 3.068-8.185v-0.099c0-5.776-3.122-9.414-7.681-11.103l8.75-12.787h-9.205l-7.675 11.46h-6.183v-11.46h-7.887z" fill="#195ea5"/></g><g transform="matrix(.35278 0 0 -.35278 251.99 172.47)"><path d="m0 0h-10.9v7.269h29.667v-7.269h-10.89v-28.547h-7.877z" fill="#195ea5"/></g></g></g></svg>
